<?xml version="1.0" encoding="UTF-8" standalone="no"?>
<svg
   version="1.0"
   width="1024pt"
   height="512pt"
   viewBox="0 0 1024 512"
   preserveAspectRatio="xMidYMid"
   id="svg8"
   sodipodi:docname="config.svg"
   inkscape:version="1.4 (e7c3feb100, 2024-10-09)"
   xmlns:inkscape="http://www.inkscape.org/namespaces/inkscape"
   xmlns:sodipodi="http://sodipodi.sourceforge.net/DTD/sodipodi-0.dtd"
   xmlns:xlink="http://www.w3.org/1999/xlink"
   xmlns="http://www.w3.org/2000/svg"
   xmlns:svg="http://www.w3.org/2000/svg">
  <defs
     id="defs8">
    <linearGradient
       id="linearGradient5"
       inkscape:collect="always">
      <stop
         style="stop-color:#ff82f5;stop-opacity:1;"
         offset="0.45123106"
         id="stop3" />
      <stop
         style="stop-color:#ffaff3;stop-opacity:1;"
         offset="1"
         id="stop4" />
    </linearGradient>
    <linearGradient
       id="linearGradient23"
       inkscape:collect="always">
      <stop
         style="stop-color:#ff82f5;stop-opacity:1;"
         offset="0"
         id="stop22" />
      <stop
         style="stop-color:#ffaff3;stop-opacity:1;"
         offset="0.44584167"
         id="stop23" />
    </linearGradient>
    <linearGradient
       id="linearGradient21"
       inkscape:collect="always">
      <stop
         style="stop-color:#ff82f5;stop-opacity:1;"
         offset="0.34573445"
         id="stop20" />
      <stop
         style="stop-color:#ffaff3;stop-opacity:1;"
         offset="1"
         id="stop21" />
    </linearGradient>
    <linearGradient
       id="linearGradient17"
       inkscape:collect="always">
      <stop
         style="stop-color:#ff82f5;stop-opacity:1;"
         offset="0.52566564"
         id="stop16" />
      <stop
         style="stop-color:#ffaff3;stop-opacity:1;"
         offset="0.83729529"
         id="stop17" />
    </linearGradient>
    <linearGradient
       id="linearGradient15"
       inkscape:collect="always">
      <stop
         style="stop-color:#ff82f5;stop-opacity:1;"
         offset="0.55030775"
         id="stop14" />
      <stop
         style="stop-color:#ffaff3;stop-opacity:1;"
         offset="0.88793033"
         id="stop15" />
    </linearGradient>
    <linearGradient
       id="linearGradient1"
       inkscape:collect="always">
      <stop
         style="stop-color:#ff82f5;stop-opacity:1;"
         offset="0.19701146"
         id="stop1" />
      <stop
         style="stop-color:#ffaff3;stop-opacity:1;"
         offset="1"
         id="stop2" />
    </linearGradient>
    <linearGradient
       inkscape:collect="always"
       xlink:href="#linearGradient15"
       id="linearGradient2"
       x1="2148.5115"
       y1="7287.8926"
       x2="2148.5115"
       y2="4159.3896"
       gradientUnits="userSpaceOnUse" />
    <linearGradient
       inkscape:collect="always"
       xlink:href="#linearGradient5"
       id="linearGradient4"
       x1="3903.2161"
       y1="5698.0479"
       x2="3903.2161"
       y2="4851.6152"
       gradientUnits="userSpaceOnUse" />
    <linearGradient
       inkscape:collect="always"
       xlink:href="#linearGradient23"
       id="linearGradient6"
       x1="4612.0381"
       y1="5254.2173"
       x2="4612.0381"
       y2="4064.1401"
       gradientUnits="userSpaceOnUse" />
    <linearGradient
       inkscape:collect="always"
       xlink:href="#linearGradient21"
       id="linearGradient8"
       x1="5665.8691"
       y1="5816.6357"
       x2="5665.8691"
       y2="4808.374"
       gradientUnits="userSpaceOnUse" />
    <linearGradient
       inkscape:collect="always"
       xlink:href="#linearGradient17"
       id="linearGradient10"
       x1="7976.5283"
       y1="7492.333"
       x2="7976.5283"
       y2="3865.9495"
       gradientUnits="userSpaceOnUse" />
    <linearGradient
       inkscape:collect="always"
       xlink:href="#linearGradient1"
       id="linearGradient14"
       x1="6099.5"
       y1="5380.8716"
       x2="6099.5"
       y2="4921.8716"
       gradientUnits="userSpaceOnUse" />
  </defs>
  <sodipodi:namedview
     id="namedview8"
     pagecolor="#505050"
     bordercolor="#ffffff"
     borderopacity="1"
     inkscape:showpageshadow="0"
     inkscape:pageopacity="0"
     inkscape:pagecheckerboard="1"
     inkscape:deskcolor="#505050"
     inkscape:document-units="pt"
     inkscape:zoom="0.57128906"
     inkscape:cx="542.63248"
     inkscape:cy="682.66667"
     inkscape:window-width="1290"
     inkscape:window-height="1371"
     inkscape:window-x="26"
     inkscape:window-y="23"
     inkscape:window-maximized="0"
     inkscape:current-layer="g8" />
  <metadata
     id="metadata1">
Created by potrace 1.16, written by Peter Selinger 2001-2019
</metadata>
  <g
     id="g9"
     transform="translate(0,-198.22337)"
     style="fill:#000000;fill-opacity:1">
    <g
       transform="matrix(0.1,0,0,-0.1,0,1024)"
       fill="#000000"
       stroke="none"
       id="g8"
       style="fill:#000000;fill-opacity:1">
      <path
         d="m 1640,8154 c 0,-3 9,-17 20,-33 37,-49 42,-133 14,-273 -36,-186 -35,-202 32,-316 32,-54 71,-113 88,-132 66,-74 79,-104 71,-173 -4,-34 -16,-89 -26,-123 -24,-76 -60,-421 -47,-449 4,-11 26,-49 48,-85 21,-35 37,-66 35,-68 -1,-2 -27,9 -57,24 -147,74 -250,175 -330,324 -31,58 -63,115 -72,126 -17,24 -166,117 -166,104 0,-4 29,-29 65,-55 76,-56 87,-71 121,-167 42,-119 86,-187 176,-274 58,-57 105,-92 158,-118 123,-62 139,-75 198,-159 99,-141 165,-192 341,-259 l 114,-43 58,-77 c 97,-127 101,-153 24,-163 -46,-5 -63,-3 -99,15 -50,24 -111,29 -129,11 -10,-11 -8,-12 10,-7 15,5 37,-3 74,-26 42,-26 67,-33 119,-36 36,-3 68,-10 72,-16 10,-15 10,-319 1,-314 -68,35 -133,59 -198,73 -109,24 -177,43 -195,54 -11,8 -16,41 -21,138 -6,145 -15,172 -85,270 -25,35 -54,87 -64,116 -10,28 -19,45 -19,36 -2,-33 32,-127 72,-199 41,-74 41,-77 45,-193 2,-64 1,-124 -2,-132 -8,-22 -20,-14 -170,104 -70,55 -154,112 -186,127 l -60,27 v 81 c 0,44 4,98 9,119 7,30 5,52 -10,95 -20,58 -27,141 -14,183 l 7,24 -19,-25 c -15,-21 -17,-40 -15,-110 2,-47 4,-107 4,-135 1,-67 -13,-194 -22,-200 -3,-2 -56,49 -117,113 -106,113 -115,120 -266,205 -132,74 -156,91 -161,115 -3,15 -10,95 -16,177 -12,188 -40,503 -46,532 -2,12 -42,66 -89,120 -93,107 -117,148 -117,199 0,19 -4,31 -9,28 -14,-8 -11,-91 5,-128 7,-18 33,-60 58,-92 24,-33 56,-85 70,-115 27,-53 27,-57 38,-379 6,-179 13,-348 16,-377 l 5,-52 67,-37 c 199,-108 274,-159 310,-209 20,-27 56,-71 81,-97 47,-52 49,-50 -39,-67 -30,-6 -94,-22 -142,-35 l -86,-24 -52,24 c -90,41 -165,56 -285,54 -60,-1 -130,-5 -155,-10 -45,-7 -45,-8 20,-9 77,-1 207,-23 268,-45 23,-8 79,-34 123,-57 l 81,-42 166,42 c 92,23 181,41 198,41 31,0 176,-70 182,-88 4,-13 -105,-111 -143,-128 -16,-7 -56,-21 -88,-30 -32,-9 -57,-17 -55,-19 8,-8 172,17 196,29 15,8 51,33 81,55 30,23 60,41 66,41 6,0 46,-36 90,-81 112,-113 163,-140 360,-190 102,-26 171,-64 207,-113 15,-22 27,-41 25,-43 -2,-2 -20,4 -40,12 -41,17 -177,21 -177,5 0,-5 15,-10 33,-11 17,0 41,-4 51,-8 18,-7 18,-8 -4,-24 -31,-21 -19,-34 12,-13 27,18 56,12 127,-23 32,-17 48,-33 62,-67 23,-51 51,-186 41,-195 -4,-3 -45,-11 -92,-18 -47,-7 -94,-14 -105,-17 -16,-4 -24,6 -43,50 -21,47 -30,57 -70,74 -26,11 -74,25 -107,31 -33,6 -71,19 -85,29 -48,35 -55,35 -22,0 24,-26 54,-42 102,-57 85,-27 117,-51 141,-109 11,-25 18,-46 17,-47 -9,-9 -198,-55 -223,-55 -17,0 -90,18 -163,40 -80,24 -179,45 -252,54 -66,8 -128,19 -137,25 -9,5 -40,42 -68,82 -50,74 -51,74 -130,100 -87,28 -146,75 -172,138 -8,18 -17,31 -20,28 -9,-9 14,-66 48,-118 26,-41 40,-51 98,-74 78,-29 96,-46 143,-130 32,-57 46,-69 112,-95 30,-11 29,-12 -63,-52 -83,-37 -98,-48 -142,-102 -26,-34 -65,-92 -85,-130 -34,-63 -41,-70 -99,-98 l -63,-29 -54,28 c -52,27 -57,28 -213,28 -132,1 -166,4 -192,18 -43,23 -51,22 -20,-3 38,-30 70,-39 200,-54 104,-12 129,-18 202,-55 46,-22 89,-41 97,-41 7,0 49,16 93,35 78,35 81,38 113,98 58,110 93,150 170,190 97,51 195,87 238,87 22,0 85,-23 166,-60 145,-66 160,-68 282,-45 44,8 81,13 84,10 14,-14 -101,-234 -149,-285 -21,-24 -36,-29 -95,-34 -78,-8 -115,-22 -162,-61 -31,-26 -72,-93 -92,-153 l -10,-27 23,29 c 45,60 91,108 116,120 14,7 67,16 116,19 50,3 102,10 117,16 27,10 121,151 161,241 l 20,45 9,-30 c 9,-29 6,-79 -7,-155 -4,-23 5,-9 25,40 27,64 31,83 26,130 -5,45 -2,61 14,88 23,38 13,37 215,5 91,-14 104,-19 140,-53 22,-20 63,-55 91,-78 40,-33 61,-62 106,-150 51,-100 56,-113 48,-148 -13,-56 -50,-78 -186,-113 -49,-13 -82,-43 -113,-105 -15,-28 -34,-49 -53,-57 -38,-15 -30,-22 10,-8 18,6 47,32 72,65 23,31 48,54 59,54 18,0 159,40 194,55 15,6 17,0 17,-67 0,-47 8,-99 20,-139 l 21,-65 93,-12 c 139,-17 164,-28 199,-86 l 30,-48 -24,-45 c -13,-24 -36,-57 -51,-73 -15,-17 -23,-30 -19,-30 15,0 90,59 101,80 6,11 15,20 20,20 5,0 39,-46 76,-102 72,-110 89,-128 146,-158 53,-28 57,-25 11,9 -48,35 -72,67 -102,141 -13,30 -45,98 -71,150 -26,52 -50,107 -53,121 -11,42 -77,79 -176,96 -47,9 -89,19 -93,22 -4,4 -8,54 -9,111 -1,86 3,116 22,165 20,54 21,65 10,118 l -12,59 57,65 c 64,72 158,154 206,179 65,34 207,-2 276,-68 23,-23 32,-28 32,-16 0,35 -55,81 -154,129 -135,64 -138,70 -147,254 -6,156 -27,244 -28,120 0,-38 -7,-90 -16,-115 -27,-77 -91,-161 -162,-213 l -66,-47 -31,20 c -17,10 -72,49 -122,86 l -92,68 -12,114 c -9,83 -11,222 -6,496 3,210 7,387 8,394 1,8 11,20 22,28 53,38 181,114 192,114 6,0 19,-10 30,-22 10,-11 56,-45 101,-74 95,-62 109,-89 99,-185 -7,-71 -63,-188 -103,-217 -15,-11 -25,-24 -21,-28 4,-3 38,24 76,62 63,64 71,77 107,174 78,217 114,265 275,373 57,39 99,72 92,75 -7,2 -18,0 -25,-6 -7,-5 -48,-22 -92,-38 -65,-23 -97,-28 -170,-29 -100,0 -131,12 -231,85 -80,60 -101,90 -114,168 -11,68 -11,69 18,113 41,61 45,80 31,148 -11,57 -10,63 20,135 22,54 31,92 33,140 1,36 -1,69 -5,73 -4,3 -7,-11 -7,-33 -1,-51 -20,-102 -66,-177 -35,-57 -38,-67 -36,-130 2,-62 -2,-75 -33,-131 -31,-55 -35,-72 -35,-133 0,-54 -4,-73 -17,-85 -25,-21 -109,-51 -122,-43 -7,4 -9,34 -4,91 6,79 4,87 -18,117 -13,18 -38,59 -56,92 -29,53 -32,56 -27,25 4,-19 22,-64 40,-99 32,-62 32,-64 18,-110 -7,-25 -14,-73 -14,-107 v -60 l -49,-16 -50,-16 -73,77 c -113,117 -198,226 -198,254 0,32 20,88 77,215 l 46,103 -67,177 c -65,175 -77,233 -56,273 6,10 7,19 2,19 -16,0 -32,-50 -32,-100 0,-28 18,-113 40,-191 22,-78 40,-152 40,-166 0,-13 -22,-63 -49,-111 -27,-48 -55,-104 -62,-124 -13,-37 -13,-37 -31,-18 -11,11 -34,26 -52,34 -18,7 -50,29 -71,47 -57,50 -30,7 55,-85 46,-52 70,-86 70,-102 0,-32 42,-114 80,-157 16,-19 30,-37 30,-41 0,-13 -138,47 -214,92 -89,53 -129,100 -224,262 -30,52 -72,120 -92,150 l -36,55 8,135 c 5,80 17,167 30,212 12,47 20,106 20,149 -1,128 -17,166 -102,254 -70,73 -142,189 -142,230 0,17 7,84 15,150 11,85 13,135 6,170 -11,60 -47,142 -65,149 -8,3 -14,3 -14,0 z"
         id="path1"
         style="fill:url(#linearGradient2);fill-opacity:1" />
      <path
         d="m 8427,8092 c -17,-18 -33,-52 -44,-97 -9,-38 -32,-94 -50,-124 -48,-79 -50,-108 -19,-227 14,-56 26,-112 26,-124 0,-12 -23,-70 -50,-127 -73,-152 -75,-167 -60,-354 l 13,-158 -27,-40 c -16,-22 -59,-74 -96,-115 -43,-47 -71,-87 -75,-108 -4,-18 -16,-61 -26,-95 l -19,-62 -83,-32 c -73,-28 -254,-88 -267,-89 -3,0 -5,71 -5,157 0,124 -4,173 -19,230 -19,69 -19,73 -2,111 10,22 40,56 71,80 39,30 65,63 96,119 l 42,76 -17,96 c -31,177 -31,225 -2,330 14,52 24,97 21,99 -2,2 -7,-9 -11,-24 -4,-16 -18,-51 -32,-79 -32,-65 -41,-142 -32,-295 l 7,-125 -38,-52 c -21,-28 -57,-66 -80,-85 -80,-63 -96,-83 -118,-149 l -21,-65 20,-59 c 36,-106 20,-335 -29,-415 -16,-25 -45,-75 -65,-113 -40,-73 -60,-96 -122,-144 -71,-56 -81,-58 -180,-33 -101,25 -149,47 -182,83 -19,20 -22,29 -13,44 5,11 7,29 4,41 -4,15 4,32 26,57 44,50 47,75 25,196 -12,64 -17,118 -12,135 4,15 28,48 52,73 46,47 86,137 85,191 l -1,25 -7,-25 c -17,-56 -56,-116 -116,-181 -36,-37 -67,-80 -71,-95 -4,-15 -2,-55 5,-89 6,-34 11,-84 11,-111 0,-45 -5,-55 -55,-113 -36,-42 -57,-77 -61,-100 -14,-84 -25,-102 -93,-152 -90,-66 -215,-129 -256,-129 -19,0 -46,5 -61,10 -39,15 -39,8 1,-36 19,-21 50,-74 68,-119 l 32,-80 v -396 -395 l -40,-80 c -22,-43 -42,-83 -44,-87 -2,-5 7,-3 19,3 34,18 124,4 182,-27 56,-30 94,-75 129,-148 l 23,-50 4,46 c 3,43 9,51 98,140 l 94,94 25,-30 c 37,-46 56,-91 62,-148 7,-64 -28,-174 -92,-292 -23,-44 -49,-99 -56,-122 -13,-47 -23,-52 -50,-27 -29,26 -90,43 -160,44 -57,0 -72,-4 -110,-30 -24,-16 -51,-30 -59,-30 -8,0 -22,-5 -30,-11 -24,-17 80,-2 106,16 28,18 74,19 146,4 41,-9 63,-21 96,-54 l 43,-43 -25,-56 c -14,-31 -40,-77 -57,-102 -33,-45 -60,-58 -166,-79 -29,-6 -47,-21 -105,-94 -21,-25 -44,-26 -179,-9 l -96,12 -54,-31 c -66,-37 -77,-59 -13,-27 57,29 65,29 156,4 40,-11 94,-20 120,-20 27,0 48,-4 48,-8 0,-13 -62,-68 -95,-85 -16,-8 -46,-17 -66,-21 -20,-3 -46,-18 -60,-33 l -24,-27 30,19 c 17,11 58,22 91,26 93,10 142,48 217,170 12,20 30,30 69,39 105,25 193,62 228,96 20,19 39,34 42,34 10,0 36,-73 47,-132 8,-43 7,-70 -5,-119 l -15,-63 36,-69 c 35,-67 36,-70 24,-121 -17,-75 -6,-92 15,-24 20,61 18,95 -10,171 -16,46 -16,52 -1,101 23,72 21,97 -12,196 -16,47 -28,87 -26,89 5,4 59,-33 103,-71 42,-36 64,-36 30,0 -14,15 -33,39 -43,54 -9,15 -33,38 -54,50 -20,12 -37,22 -39,23 -3,3 48,207 55,217 2,4 21,1 41,-8 62,-28 137,-36 175,-20 42,17 120,66 115,71 -2,3 -28,-4 -56,-15 -29,-11 -71,-20 -95,-19 -53,1 -143,32 -139,49 1,7 24,41 50,76 l 47,63 165,55 c 155,51 286,83 297,72 9,-9 23,-81 23,-123 0,-34 9,-55 43,-103 23,-33 45,-60 50,-60 4,0 -6,25 -23,56 -26,49 -30,67 -30,135 0,44 4,79 8,79 5,0 17,-9 26,-19 10,-10 60,-40 112,-66 52,-25 101,-56 108,-68 8,-12 22,-60 31,-107 10,-47 31,-128 49,-180 l 31,-95 87,-25 c 77,-22 94,-31 140,-76 63,-62 86,-74 130,-73 l 33,1 -33,8 c -39,9 -70,36 -118,102 -30,41 -46,51 -120,79 -63,24 -85,37 -89,53 -3,11 -16,88 -30,170 -15,81 -30,158 -35,171 -11,29 -46,54 -157,110 -128,64 -130,69 -42,95 l 73,22 80,-21 c 110,-30 285,-101 308,-125 40,-42 119,-168 140,-223 22,-55 23,-57 102,-93 92,-42 294,-110 328,-110 13,0 -13,15 -57,34 -44,18 -131,62 -194,98 l -115,64 -32,97 c -17,53 -39,109 -49,123 l -17,27 48,-8 c 27,-4 109,-27 183,-52 l 134,-44 111,50 c 85,38 130,52 193,60 117,15 205,57 234,114 l 12,22 -24,-22 c -43,-39 -98,-54 -232,-65 -79,-6 -152,-18 -186,-30 -31,-10 -70,-24 -86,-30 -27,-9 -44,-4 -136,35 -143,61 -234,87 -306,87 -44,0 -76,7 -118,26 -31,15 -53,30 -48,34 4,4 32,16 62,26 37,13 62,30 80,54 14,19 39,48 56,63 l 30,28 -40,-20 c -22,-11 -53,-31 -68,-45 -15,-13 -51,-30 -80,-36 -29,-7 -64,-20 -79,-28 -24,-14 -32,-14 -90,4 -83,25 -190,23 -288,-5 -59,-16 -102,-21 -201,-21 -99,0 -141,-4 -191,-20 -34,-11 -66,-20 -70,-20 -14,0 -8,75 7,97 11,16 30,23 73,28 104,11 141,25 170,64 14,20 40,51 56,70 29,32 30,33 6,21 -14,-7 -44,-30 -66,-52 -25,-24 -57,-43 -80,-49 -50,-11 -174,-12 -174,0 0,23 33,83 72,131 24,29 57,71 75,94 l 32,41 71,-4 c 69,-3 74,-1 126,34 44,30 60,36 85,31 18,-3 28,-2 24,4 -11,17 -94,11 -135,-10 -59,-30 -131,-25 -130,9 1,9 13,39 28,68 21,41 43,63 107,108 44,30 88,55 99,55 11,0 65,-24 120,-54 117,-62 148,-71 219,-60 l 52,8 -70,6 c -69,6 -73,7 -153,73 -45,37 -83,70 -85,73 -1,4 23,19 53,35 l 55,28 90,-14 c 129,-20 203,-18 345,10 166,33 201,32 253,-3 90,-61 219,-124 242,-118 13,3 47,28 77,54 61,56 91,74 171,103 77,28 65,36 -20,14 -76,-20 -103,-32 -184,-82 l -57,-34 -103,69 c -174,116 -167,114 -345,82 -107,-19 -237,-26 -281,-14 -21,6 -20,9 22,41 44,33 163,180 197,243 12,21 32,37 60,48 24,9 97,43 162,75 66,32 131,59 145,59 30,1 212,-26 314,-47 39,-8 92,-28 125,-48 54,-33 60,-34 116,-27 54,8 73,17 201,96 16,10 31,9 80,-7 81,-27 142,-27 191,0 21,12 30,19 19,15 -65,-22 -110,-17 -184,21 -86,43 -86,43 -214,-21 -50,-24 -97,-44 -105,-44 -8,0 -30,12 -49,26 -58,44 -114,62 -250,80 -73,10 -133,21 -133,24 0,3 37,23 83,44 107,51 188,131 206,202 13,51 73,169 121,239 17,24 66,65 126,105 l 99,65 51,125 c 28,69 61,142 73,163 13,20 20,37 17,37 -9,0 -101,-141 -141,-218 -33,-63 -46,-78 -89,-102 -167,-92 -165,-90 -233,-188 -36,-51 -82,-130 -103,-175 -21,-45 -51,-94 -67,-108 -15,-14 -80,-45 -143,-69 -63,-23 -171,-69 -239,-102 -68,-32 -125,-57 -128,-54 -14,14 54,118 117,179 82,80 92,97 115,197 50,225 45,211 92,257 25,24 41,43 35,43 -16,0 -87,-56 -104,-82 -15,-22 -70,-188 -82,-248 -6,-29 -59,-88 -134,-149 -52,-43 -94,-110 -121,-191 -6,-21 -23,-43 -40,-53 -16,-9 -55,-52 -87,-94 -148,-195 -162,-210 -233,-239 -36,-15 -122,-51 -190,-81 -69,-29 -127,-51 -129,-48 -7,6 38,196 54,226 7,14 20,32 30,40 23,19 54,88 53,119 -1,22 -2,21 -12,-8 -6,-19 -37,-63 -69,-98 -32,-35 -58,-68 -58,-72 -1,-4 -15,-57 -33,-118 l -32,-112 -70,-54 c -49,-38 -87,-79 -128,-138 -53,-78 -151,-190 -167,-190 -4,0 -10,94 -14,209 -8,222 -5,245 39,345 26,60 28,61 145,106 63,23 99,53 135,110 29,46 70,77 110,83 27,4 27,4 -7,6 -53,2 -84,-13 -147,-72 -41,-37 -76,-59 -121,-75 -36,-12 -71,-22 -77,-22 -39,0 20,111 114,212 57,62 88,104 107,151 l 28,64 126,61 c 70,33 182,79 250,103 111,38 122,44 122,66 0,13 10,67 22,119 20,88 26,101 78,162 77,93 119,156 126,190 5,26 17,35 93,68 109,47 141,71 188,139 38,53 77,84 203,155 34,19 78,49 98,68 l 37,33 -40,-26 c -23,-14 -93,-48 -155,-75 -105,-46 -121,-56 -180,-120 -55,-59 -79,-76 -152,-109 l -87,-40 -5,27 c -19,89 -36,241 -30,267 3,16 29,73 56,125 57,108 58,128 14,257 -42,124 -42,142 -2,220 20,38 36,83 36,99 1,48 17,105 40,136 26,36 21,36 -13,0 z M 6929,5826 c 27,-19 55,-36 60,-38 20,-6 33,-302 26,-569 -4,-140 -10,-270 -13,-288 -6,-28 -15,-35 -65,-56 -32,-13 -67,-31 -78,-41 -18,-16 -20,-15 -57,17 -38,34 -38,35 -45,129 -9,123 -8,734 1,782 6,30 16,44 52,67 25,16 50,30 56,30 7,1 35,-14 63,-33 z"
         id="path2"
         style="fill:url(#linearGradient10);fill-opacity:1" />
      <path
         d="m 5795,6738 c -2,-13 -11,-78 -20,-146 -8,-68 -20,-133 -26,-145 -22,-43 -212,-207 -239,-207 -11,0 -26,12 -33,27 l -14,27 -18,-55 c -15,-44 -19,-97 -22,-286 l -4,-231 -28,-12 c -16,-6 -44,-9 -63,-5 l -35,7 -7,-67 c -6,-61 0,-99 11,-67 3,8 26,12 66,12 h 62 v -372 c 0,-205 4,-461 9,-568 10,-224 3,-291 -46,-410 -35,-83 -119,-228 -176,-304 -66,-87 -67,-92 -3,-31 167,161 337,434 381,613 42,172 53,301 57,704 l 5,386 73,7 c 93,9 148,0 186,-32 46,-39 44,-22 -5,31 -44,49 -66,99 -66,151 v 28 l -21,-27 c -30,-38 -74,-58 -112,-51 -73,15 -67,-6 -67,234 v 217 l 40,53 c 21,30 41,58 43,64 8,24 137,-86 192,-163 l 17,-25 -5,36 c -9,60 40,131 116,171 42,21 127,95 127,109 0,5 -18,-4 -40,-20 -54,-39 -130,-57 -170,-41 -38,16 -97,81 -121,134 -25,57 -41,167 -33,227 7,49 -1,69 -11,27 z"
         id="path3"
         style="fill:url(#linearGradient8);fill-opacity:1" />
      <path
         d="m 3978,5976 c -15,-57 -34,-120 -42,-139 -19,-45 -83,-93 -216,-159 -95,-48 -111,-53 -172,-53 -38,0 -68,-3 -68,-6 0,-4 13,-12 29,-18 15,-7 34,-24 40,-39 21,-44 41,-258 41,-428 0,-145 -2,-168 -25,-235 -14,-41 -39,-96 -55,-123 -24,-38 -27,-47 -13,-41 50,21 113,18 166,-8 89,-44 207,-180 207,-239 0,-32 16,-19 18,15 4,52 44,99 161,191 116,91 163,117 215,118 45,1 47,5 17,37 -27,29 -28,35 -34,173 -4,79 -7,223 -7,320 0,200 9,241 61,272 39,23 33,28 -17,14 -21,-6 -49,-10 -62,-10 -31,2 -97,46 -148,99 -61,63 -78,125 -71,260 2,57 4,103 3,103 -1,0 -13,-47 -28,-104 z m -73,-355 c 8,-17 37,-49 65,-73 l 50,-43 v -120 c 0,-67 5,-215 11,-330 l 10,-208 -40,-40 -39,-40 -54,48 c -29,26 -63,52 -74,57 -24,11 -27,48 -40,476 l -7,213 44,45 c 24,24 47,44 51,44 4,0 14,-13 23,-29 z"
         id="path4"
         style="fill:url(#linearGradient4);fill-opacity:1" />
      <path
         d="m 6059,6007 -76,-73 67,-71 67,-72 73,74 74,74 -46,49 c -25,26 -51,58 -57,70 -6,12 -15,22 -19,22 -4,-1 -41,-33 -83,-73 z"
         id="path5"
         style="fill:#ff82f5;fill-opacity:1" />
      <path
         d="m 5130,5770 c -16,-17 -31,-44 -35,-60 -6,-26 -11,-30 -41,-30 -67,0 -126,42 -147,105 -2,5 -21,-11 -43,-34 -48,-54 -177,-153 -185,-143 -4,4 -19,31 -35,61 l -28,54 23,18 c 22,18 22,19 3,19 -12,0 -44,-27 -83,-71 -34,-39 -87,-86 -116,-105 -29,-19 -62,-49 -73,-66 l -20,-33 23,-6 c 12,-3 32,-1 44,4 16,7 27,6 37,-2 33,-28 45,-237 27,-476 -8,-95 -12,-111 -31,-127 -12,-10 -20,-23 -17,-30 2,-7 -4,-29 -14,-49 l -18,-37 30,-6 c 16,-3 52,-26 79,-52 55,-52 86,-117 76,-161 -4,-15 -9,-37 -12,-48 -9,-35 21,24 56,113 35,88 74,138 122,154 15,6 28,14 28,20 0,12 -35,63 -70,103 -26,30 -27,30 -19,135 5,58 8,189 7,293 0,103 1,189 3,190 2,2 23,18 45,35 23,18 45,32 48,32 4,0 33,-27 65,-60 l 59,-60 -11,-122 c -8,-90 -7,-191 1,-373 16,-331 15,-547 -3,-675 -22,-151 -21,-149 -60,-97 -96,125 -288,195 -464,169 -112,-16 -185,-44 -279,-109 -105,-72 -112,-83 -25,-38 127,66 281,90 405,64 188,-39 327,-188 344,-368 7,-73 -19,-262 -45,-329 -11,-28 -19,-52 -17,-52 14,0 55,89 96,208 26,75 86,227 133,337 159,374 182,505 136,770 -11,66 -23,189 -26,273 -9,228 14,340 85,415 24,25 25,27 5,27 -30,0 -73,48 -75,84 -2,56 3,80 27,124 28,50 23,53 -15,12 z"
         id="path6"
         style="fill:url(#linearGradient6);fill-opacity:1" />
      <path
         d="m 6284,5734.8718 c -16,-12 -63,-52 -104,-88 -102,-89 -238,-194 -277,-214 -18,-9 -33,-18 -33,-20 0,-2 20,-1 45,1 39,5 47,2 75,-25 l 30,-30 v -294 c 0,-292 0,-293 -25,-336 l -24,-42 43,-33 c 24,-17 56,-49 72,-69 15,-21 32,-38 36,-38 5,0 22,15 38,33 16,19 61,60 99,92 l 70,59 -27,17 c -15,9 -37,26 -49,38 -23,22 -23,24 -23,316 v 294 l 28,19 c 15,10 35,22 45,25 20,7 14,27 -8,27 -7,0 -25,14 -40,32 -24,28 -27,39 -23,84 4,50 12,66 74,152 21,28 14,28 -22,0 z"
         id="path7"
         style="fill:url(#linearGradient14);fill-opacity:1" />
      <path
         d="m 8933,3943 c 9,-2 23,-2 30,0 6,3 -1,5 -18,5 -16,0 -22,-2 -12,-5 z"
         id="path8"
         style="fill:#000000;fill-opacity:1" />
    </g>
  </g>
</svg>
